<svg width="125" height="125" viewBox="0 0 125 125" fill="none" xmlns="http://www.w3.org/2000/svg">
<path d="M123.047 62.5C123.047 95.9392 95.9392 123.047 62.5 123.047C29.0608 123.047 1.95312 95.9392 1.95312 62.5C1.95312 29.0608 29.0608 1.95312 62.5 1.95312C95.9392 1.95312 123.047 29.0608 123.047 62.5ZM55.4966 94.5591L100.418 49.6372C101.944 48.1118 101.944 45.6384 100.418 44.113L94.8943 38.5889C93.3689 37.0632 90.8955 37.0632 89.3699 38.5889L52.7344 75.2241L35.6301 58.1199C34.1047 56.5945 31.6313 56.5945 30.1057 58.1199L24.5815 63.644C23.0562 65.1694 23.0562 67.6428 24.5815 69.1682L49.9722 94.5588C51.4978 96.0845 53.9709 96.0845 55.4966 94.5591V94.5591Z" fill="#29A636"/>
</svg>
